# xmcd CD database file
#
# Track frame offsets:
#	150
#	20613
#	42659
#	68139
#	88405
#	108705
#	137839
#	158462
#	180694
#	213027
#
# Disc length: 3127 seconds
#
# Revision: 0
# Processed by: cddbd v1.5.2PL0 Copyright (c) Steve Scherf et al.
# Submitted via: CDex 1.70beta2
#
DISCID=8c0c350a
DTITLE=White Day - Park Dong Hwa - Jazz vol. 3
DYEAR=2007
DGENRE=Jazz
TTITLE0=Horse Riding - for Yeseung
TTITLE1=Mom I'm Sorry
TTITLE2=My Little Girl - for Nuri
TTITLE3=Don't Say Sorry
TTITLE4=Love Feeling - Feat. AJNA
TTITLE5=NAP
TTITLE6=Best Friend
TTITLE7=Love Ballad
TTITLE8=Trash
TTITLE9=Mombo Babo
EXTD=YEAR: 2007
EXTT0=
EXTT1=
EXTT2=
EXTT3=
EXTT4=
EXTT5=
EXTT6=
EXTT7=
EXTT8=
EXTT9=
PLAYORDER=
